# Blender 4.5.4 LTS
# www.blender.org
mtllib enemy-vision-cone.mtl
o Cone
v 14.859294 -1.000000 -3.090170
v 14.859294 -1.000000 3.090170
v 10.879473 -1.044474 8.808250
v 0.000000 -1.000000 10.000000
v 0.000000 22.944839 0.000000
v -10.879473 -1.044474 8.808250
v 14.859294 -1.000000 -3.090170
v 10.879473 -1.044474 -8.808250
v 0.000000 -1.000000 -10.000000
v -14.859294 -1.000000 3.090170
v -14.859294 -1.000000 -3.090170
v -10.879473 -1.044474 -8.808250
vn -0.5597 -0.5314 -0.6359
vn 0.8497 0.5273 -0.0000
vn 0.7075 0.5031 0.4963
vn 0.1021 0.3834 0.9179
vn -0.1021 0.3834 0.9179
vn -0.7075 0.5031 0.4963
vn 0.7075 0.5031 -0.4963
vn 0.1021 0.3834 -0.9179
vn -0.3735 -0.4643 0.8031
vn 0.5597 -0.5314 0.6359
vn -0.8497 0.5273 -0.0000
vn -0.7075 0.5031 -0.4963
vn -0.1021 0.3834 -0.9179
vn -0.0000 -1.0000 -0.0000
vt 0.978254 0.324164
vt 0.978254 0.175836
vt 0.891068 0.055836
vt 0.750000 0.010000
vt 0.250000 0.250000
vt 0.478254 0.324164
vt 0.478254 0.175836
vt 0.391068 0.055836
vt 0.250000 0.010000
vt 0.000000 0.000000
s 0
f 1/1/1 2/2/1 3/3/1 4/4/1 5/5/1
f 1/6/2 5/5/2 2/7/2
f 2/7/3 5/5/3 3/8/3
f 3/8/4 5/5/4 4/9/4
f 6/8/5 4/9/5 5/5/5
f 6/8/6 5/5/6 10/1/6
f 7/7/7 8/8/7 5/5/7
f 8/8/8 9/9/8 5/5/8
f 5/5/9 9/4/9 8/3/9 7/7/9
f 10/1/10 11/2/10 12/3/10 9/9/10 5/5/10
f 10/6/11 5/5/11 11/7/11
f 11/7/12 5/5/12 12/8/12
f 12/8/13 5/5/13 9/9/13
f 7/10/14 2/10/14 3/10/14 4/10/14 6/10/14 10/10/14 11/10/14 12/10/14 9/10/14 8/10/14
